# xmcd
#
# Track frame offsets: 
#        182
#        15080
#        29262
#        42827
#        58522
#        76570
#        91480
#        107540
#        123060
#        140302
#        157817
#        170180
#        188710
#        204615
#        222472
#        238485
#        257935
#        272590
#        286352
#        300610
#
# Disc length: 4222 seconds
#
# Revision: 3
# Processed by: cddbd v1.5.2PL0 Copyright (c) Steve Scherf et al.
# Submitted via: ExactAudioCopyFreeDBPlugin 1.0
#
DISCID=0d107c14
DTITLE=Nicola Di Bari - 20 éxitos
DYEAR=1994
DGENRE=Blues
TTITLE0=El corazón es un gitano
TTITLE1=Como violetas
TTITLE2=Los días del arco iris
TTITLE3=Agnese
TTITLE4=Sé que bebo, sé que fumo
TTITLE5=Qué difícil es
TTITLE6=Un gran amor y nada más
TTITLE7=Guitarra suena más bajo
TTITLE8=El amor te hace linda
TTITLE9=Il matto del villaggio
TTITLE10=Prueba llamarme amor
TTITLE11=Pedro nadie
TTITLE12=Piccola Donna
TTITLE13=Mi pueblo
TTITLE14=Hierba de mi casa
TTITLE15=Io e te María
TTITLE16=Il coure e' uno zingaro
TTITLE17=I giorni del arcobaleno
TTITLE18=Como le viole
TTITLE19=Chitarra souna piu piano
EXTD=
EXTT0=
EXTT1=
EXTT2=
EXTT3=
EXTT4=
EXTT5=
EXTT6=
EXTT7=
EXTT8=
EXTT9=
EXTT10=
EXTT11=
EXTT12=
EXTT13=
EXTT14=
EXTT15=
EXTT16=
EXTT17=
EXTT18=
EXTT19=
PLAYORDER=
